<svg width="215" height="42" viewBox="0 0 215 42" fill="none" xmlns="http://www.w3.org/2000/svg">
<g clip-path="url(#clip0)">
<path d="M0 21.2417C0 32.5529 10.806 41.7337 24.1643 42V14.2055H1.43153C0.534891 16.4739 0.0520361 18.8472 0 21.2417H0ZM47.846 14.2055H28.2544V24.7178H48.7049C48.9861 23.5159 49.1205 22.2923 49.1057 21.0665C49.1975 18.7318 48.77 16.4034 47.846 14.2055ZM28.2544 41.7687C32.705 41.2798 36.9156 39.7599 40.4327 37.3728C43.9499 34.9857 46.6402 31.8218 48.2141 28.2219H28.2544V41.7687ZM25.0805 -3.41987e-05C20.716 -0.00875806 16.4275 0.977877 12.6552 2.85856C8.88302 4.73924 5.76302 7.44619 3.61565 10.7015H46.5453C44.3979 7.44619 41.2779 4.73924 37.5057 2.85856C33.7335 0.977877 29.4449 -0.00875806 25.0805 -3.41987e-05Z" fill="#E9BE3E"/>
<path d="M95.332 41.0959C90.1021 41.0959 86.0693 39.9489 83.2335 37.6549C80.3977 35.3609 78.9771 32.1091 78.9716 27.8995V11.4023H87.9698V27.2618C87.9698 29.425 88.5942 31.0742 89.8431 32.2096C91.0919 33.3449 92.9216 33.9149 95.332 33.9196C97.7424 33.9196 99.572 33.3496 100.821 32.2096C102.07 31.0696 102.694 29.4203 102.694 27.2618V11.4023H111.692V27.8995C111.692 32.1044 110.261 35.3562 107.398 37.6549C104.535 39.9536 100.513 41.1006 95.332 41.0959ZM176.316 10.7015H185.314V40.1358H176.316V10.7015ZM201.355 40.9067C198.95 40.9992 196.554 40.603 194.361 39.7504C192.833 39.1155 191.466 38.2297 190.337 37.1433C189.223 36.0821 188.413 34.8126 187.973 33.436L195.948 31.5368C196.114 32.1681 196.438 32.761 196.897 33.2748C197.345 33.7664 197.901 34.1783 198.533 34.4872C199.387 34.8699 200.344 35.049 201.306 35.0058C202.518 35.0698 203.722 34.8076 204.75 34.256C205.129 33.9972 205.436 33.6696 205.649 33.2968C205.862 32.924 205.976 32.5153 205.982 32.1002C205.989 31.6851 205.887 31.2741 205.685 30.8967C205.484 30.5193 205.187 30.1849 204.816 29.9179C203.735 29.3371 202.536 28.9353 201.282 28.7335L197.903 28.0327C195.254 27.6043 192.81 26.5173 190.877 24.907C189.241 23.4238 188.358 21.4454 188.423 19.4056C188.365 18.1628 188.649 16.9256 189.253 15.7945C189.857 14.6634 190.764 13.6701 191.899 12.895C194.239 11.3065 197.413 10.5123 201.421 10.5123C203.659 10.4329 205.891 10.7676 207.965 11.4934C209.386 12.0258 210.697 12.7498 211.851 13.6379C212.897 14.5186 213.704 15.5857 214.215 16.7635L206.378 19.0202C206.159 18.5304 205.838 18.079 205.429 17.6886C205.005 17.3027 204.5 16.9888 203.94 16.7635C203.17 16.4669 202.33 16.3278 201.486 16.3571C200.402 16.3157 199.328 16.5603 198.411 17.0579C198.047 17.273 197.754 17.5644 197.559 17.9043C197.364 18.2441 197.274 18.6211 197.298 18.9992C197.257 19.4215 197.348 19.8457 197.562 20.2277C197.776 20.6097 198.106 20.9356 198.517 21.1717C199.672 21.7246 200.927 22.1061 202.231 22.3L205.814 23.0499C208.407 23.4537 210.79 24.5358 212.636 26.1475C214.225 27.6614 215.072 29.6419 215 31.6769C215.059 32.9749 214.756 34.2662 214.116 35.4436C213.476 36.6211 212.517 37.6506 211.319 38.4468C208.859 40.0868 205.538 40.9067 201.355 40.9067ZM75.904 33.2117C75.6423 33.2888 75.3641 33.3589 75.086 33.429C74.3299 33.5953 73.5515 33.6754 72.771 33.6673C70.8459 33.6299 69.4826 33.2631 68.6809 32.567C67.8793 31.8708 67.4921 30.593 67.5193 28.7335V0.890027H58.5211V29.2101C58.5211 36.7742 62.8839 40.5563 71.6094 40.5563C72.9599 40.5681 74.309 40.4814 75.6423 40.297C76.1249 40.2269 76.5666 40.1428 77.0002 40.0517L75.904 33.2117ZM176.316 0.189209H185.314V7.8982H176.316V0.189209ZM159.007 10.0567C160.702 9.99156 162.394 10.2501 163.958 10.8137C165.523 11.3773 166.922 12.2319 168.054 13.3155C170.29 15.4787 171.408 18.4525 171.408 22.2369V40.1358H162.41V24.017C162.41 19.7747 160.321 17.6536 156.144 17.6536C155.085 17.5955 154.026 17.7424 153.043 18.0833C152.06 18.4242 151.179 18.9504 150.466 19.6229C149.108 21.0588 148.409 22.8711 148.503 24.7178V40.1358H139.505V24.017C139.505 21.8959 138.976 20.305 137.918 19.2444C137.339 18.7068 136.628 18.2868 135.835 18.0152C135.042 17.7435 134.189 17.6272 133.337 17.6746C130.812 17.6746 128.903 18.331 127.611 19.6439C126.252 21.0799 125.554 22.8921 125.648 24.7388V40.1568H116.65V10.7225H125.648V15.8104C127.949 11.9886 131.518 10.0777 136.356 10.0777C141.553 10.0777 145.122 12.0681 147.064 16.0487C148.115 14.1327 149.828 12.54 151.972 11.4864C154.14 10.5138 156.559 10.0223 159.007 10.0567Z" fill="white"/>
</g>
<defs>
<clipPath id="clip0">
<rect width="215" height="42" fill="white"/>
</clipPath>
</defs>
</svg>
